<svg width="50" height="70" viewBox="0 0 50 70" fill="none" xmlns="http://www.w3.org/2000/svg">
<g clip-path="url(#clip0_3_72)">
<path d="M12.5 70C19.4 70 25 64.7733 25 58.3333V46.6666H12.5C5.6 46.6666 0 51.8933 0 58.3333C0 64.7733 5.6 70 12.5 70Z" fill="#0ACF83"/>
<path d="M0 35C0 28.56 5.6 23.3334 12.5 23.3334H25V46.6667H12.5C5.6 46.6667 0 41.44 0 35Z" fill="#A259FF"/>
<path d="M0 11.6667C0 5.22667 5.6 0 12.5 0H25V23.3333H12.5C5.6 23.3333 0 18.1067 0 11.6667Z" fill="#F24E1E"/>
<path d="M25 0H37.5C44.4 0 50 5.22667 50 11.6667C50 18.1067 44.4 23.3333 37.5 23.3333H25V0Z" fill="#FF7262"/>
<path d="M50 35C50 41.44 44.4 46.6667 37.5 46.6667C30.6 46.6667 25 41.44 25 35C25 28.56 30.6 23.3334 37.5 23.3334C44.4 23.3334 50 28.56 50 35Z" fill="#1ABCFE"/>
</g>
<defs>
<clipPath id="clip0_3_72">
<rect width="50" height="70" fill="white"/>
</clipPath>
</defs>
</svg>
