<svg width="105" height="100" viewBox="0 0 128 90" fill="none" xmlns="http://www.w3.org/2000/svg">
<path d="M52.581 47.6839C52.581 47.6839 49.297 49.0276 54.922 49.4818C61.736 50.0288 65.219 49.9501 72.727 48.9523C72.727 48.9523 74.706 49.8221 77.462 50.5758C60.626 55.6475 39.358 50.2819 52.581 47.6839ZM50.522 41.064C50.522 41.064 46.838 42.9828 52.467 43.392C59.747 43.9201 65.494 43.9637 75.446 42.6165C75.446 42.6165 76.819 43.598 78.982 44.1331C58.63 48.3195 35.961 44.4629 50.522 41.064Z" fill="#0074BD"/>
<path d="M67.865 29.8343C72.016 33.1938 66.777 36.2144 66.777 36.2144C66.777 36.2144 77.31 32.3916 72.473 27.6026C67.954 23.1384 64.491 20.9215 83.244 13.2743C83.244 13.2743 53.806 18.4423 67.865 29.8343Z" fill="#EA2D2E"/>
<path d="M90.132 52.5804C90.132 52.5804 92.564 53.9901 87.454 55.08C77.738 57.1493 47.01 57.7736 38.475 55.1622C35.409 54.2236 41.162 52.9214 42.971 52.6479C44.858 52.3603 45.936 52.413 45.936 52.413C42.524 50.7234 23.881 55.7311 36.467 57.1675C70.791 61.079 99.034 55.4055 90.132 52.5804ZM54.162 34.2049C54.162 34.2049 38.533 36.8156 48.628 37.7648C52.892 38.1656 61.386 38.0735 69.304 37.6066C75.773 37.2248 82.265 36.4085 82.265 36.4085C82.265 36.4085 79.986 37.0961 78.335 37.8879C62.461 40.8234 31.802 39.4558 40.629 36.4549C48.092 33.9159 54.162 34.2049 54.162 34.2049ZM82.2 45.2229C98.335 39.3293 90.874 33.6649 85.667 34.4278C84.394 34.6148 83.822 34.7765 83.822 34.7765C83.822 34.7765 84.297 34.2534 85.2 34.0291C95.502 31.4838 103.423 41.5392 81.878 45.5217C81.878 45.5217 82.125 45.3642 82.2 45.2229Z" fill="#0074BD"/>
<path d="M72.474 0.923218C72.474 0.923218 81.409 7.20845 63.998 16.8715C50.036 24.6249 60.814 29.0447 63.992 34.0967C55.842 28.9259 49.864 24.3738 53.874 20.1382C59.763 13.9212 76.078 10.9055 72.474 0.923218Z" fill="#EA2D2E"/>
<path d="M55.749 61.1993C71.233 61.8953 95.018 60.8118 95.581 55.66C95.581 55.66 94.499 57.6126 82.782 59.1623C69.564 60.9117 53.259 60.7085 43.591 59.5863C43.591 59.5863 45.571 60.7394 55.749 61.1993Z" fill="#0074BD"/>
<path d="M94.866 70.4397H94.394V70.2541H95.664V70.4397H95.194V71.3658H94.865L94.866 70.4397ZM97.401 70.4862H97.395L96.927 71.3658H96.711L96.246 70.4862H96.241V71.3658H95.929V70.2541H96.386L96.817 71.0409L97.249 70.2541H97.703V71.3658H97.401V70.4862ZM53.211 80.8854C51.751 81.7755 50.207 82.2762 48.82 82.2762C46.846 82.2762 45.775 81.4422 45.775 80.107C45.775 78.6621 46.921 77.6039 51.513 77.6039H53.21L53.211 80.8854ZM57.242 84.0832V74.1853C57.242 71.6547 55.189 69.9855 50.245 69.9855C47.359 69.9855 44.829 70.4876 42.772 71.126L43.364 72.8789C44.984 72.4605 47.079 72.0724 49.135 72.0724C51.985 72.0724 53.21 72.8789 53.21 74.5481V75.799H51.786C44.865 75.799 41.742 77.6869 41.742 80.5261C41.742 82.9722 43.8 84.3623 47.675 84.3623C50.165 84.3623 52.026 83.6395 53.763 82.5813L54.079 84.0839L57.242 84.0832ZM70.694 84.0832H65.667L59.616 70.2394H64.007L67.763 78.7465L68.598 81.3023C70.494 77.6053 71.838 73.852 72.51 70.2401H76.781C75.638 74.797 73.578 79.8012 70.694 84.0832ZM89.982 80.8854C88.517 81.7755 86.972 82.2762 85.59 82.2762C83.614 82.2762 82.544 81.4422 82.544 80.107C82.544 78.6621 83.693 77.6039 88.28 77.6039H89.981L89.982 80.8854ZM94.015 84.0832V74.1853C94.015 71.6547 91.956 69.9855 87.016 69.9855C84.127 69.9855 81.598 70.4876 79.541 71.126L80.134 72.8789C81.754 72.4605 83.852 72.0724 85.908 72.0724C88.754 72.0724 89.982 72.8789 89.982 74.5481V75.799H88.558C81.635 75.799 78.513 77.6869 78.513 80.5261C78.513 82.9722 80.569 84.3623 84.443 84.3623C86.934 84.3623 88.792 83.6395 90.534 82.5813L90.852 84.0839L94.015 84.0832ZM37.322 86.4358C36.175 87.6164 34.317 88.5508 32.285 89.0775L30.296 87.4287C31.843 86.8704 33.168 85.9697 33.785 85.1301C34.317 84.3827 34.538 83.4215 34.538 81.1216V65.314H38.822V80.9044C38.822 83.9805 38.474 85.2244 37.322 86.4358Z" fill="#EA2D2E"/>
</svg>
